<svg width="160" height="75" viewBox="0 0 160 75" fill="none" xmlns="http://www.w3.org/2000/svg">
<path d="M37.7109 57.0744C47.4133 57.0744 55.2786 49.2107 55.2786 39.5104C55.2786 29.81 47.4133 21.9463 37.7109 21.9463C28.0086 21.9463 20.1433 29.81 20.1433 39.5104C20.1433 49.2107 28.0086 57.0744 37.7109 57.0744Z" stroke="#EEF1F6" stroke-width="3"/>
<path d="M37.5001 51.3155C43.8908 51.3155 49.0715 46.1357 49.0715 39.7461C49.0715 33.3565 43.8908 28.1766 37.5001 28.1766C31.1093 28.1766 25.9286 33.3565 25.9286 39.7461C25.9286 46.1357 31.1093 51.3155 37.5001 51.3155Z" stroke="url(#paint0_linear_6_675)" stroke-width="3"/>
<path d="M31.0722 40.3888C31.0228 35.6753 33.1653 33.3186 37.4999 33.3186" stroke="url(#paint1_linear_6_675)" stroke-width="3" stroke-linecap="round"/>
<path d="M14.6723 17.25H24.301" stroke="url(#paint2_linear_6_675)" stroke-width="3" stroke-linecap="round"/>
<path d="M57.6981 21.9791C58.1996 21.9791 58.967 21.9791 60.0001 21.9791C62.4853 21.9791 64.5 23.9195 64.5 26.3131V52.7732C64.5 55.1668 62.4853 57.1072 60.0001 57.1072C50.1269 57.1072 42.5875 57.1072 37.3821 57.1072" stroke="#EEF1F6" stroke-width="3" stroke-linecap="round"/>
<path d="M16.6617 57.1072C16.286 57.1072 15.7225 57.1072 14.971 57.1072C12.5017 57.1072 10.5 55.1668 10.5 52.7732V26.3131C10.5 23.9195 12.5017 21.9791 14.971 21.9791C24.8267 21.9791 32.2184 21.9791 37.1463 21.9791" stroke="#EEF1F6" stroke-width="3" stroke-linecap="round"/>
<path d="M73.5011 38.18V27.9982H77.5181C78.2904 27.9982 78.9483 28.1457 79.4918 28.4406C80.0354 28.7323 80.4497 29.1383 80.7347 29.6587C81.0231 30.1757 81.1672 30.7723 81.1672 31.4485C81.1672 32.1246 81.0214 32.7212 80.7297 33.2382C80.4381 33.7553 80.0155 34.158 79.462 34.4463C78.9118 34.7347 78.2456 34.8789 77.4634 34.8789H74.903V33.1537H77.1154C77.5297 33.1537 77.8711 33.0825 78.1395 32.9399C78.4113 32.7941 78.6135 32.5936 78.7461 32.3384C78.882 32.0799 78.9499 31.7832 78.9499 31.4485C78.9499 31.1104 78.882 30.8154 78.7461 30.5635C78.6135 30.3083 78.4113 30.1111 78.1395 29.9719C77.8678 29.8294 77.5231 29.7581 77.1055 29.7581H75.6538V38.18H73.5011ZM84.3636 33.7652V38.18H82.2457V27.9982H84.304V31.8909H84.3935C84.5658 31.4402 84.8442 31.0872 85.2287 30.832C85.6132 30.5735 86.0954 30.4442 86.6754 30.4442C87.2057 30.4442 87.6681 30.5602 88.0625 30.7922C88.4602 31.0209 88.7685 31.3507 88.9872 31.7816C89.2093 32.2091 89.3187 32.7212 89.3153 33.3178V38.18H87.1974V33.6956C87.2008 33.225 87.0814 32.8587 86.8395 32.5969C86.6008 32.3351 86.2661 32.2041 85.8352 32.2041C85.5469 32.2041 85.2917 32.2655 85.0696 32.3881C84.8508 32.5107 84.6785 32.6897 84.5526 32.925C84.4299 33.157 84.3669 33.4371 84.3636 33.7652ZM94.1523 38.3291C93.3801 38.3291 92.7122 38.1651 92.1488 37.837C91.5887 37.5055 91.1561 37.0448 90.8512 36.4549C90.5463 35.8616 90.3938 35.1738 90.3938 34.3916C90.3938 33.6028 90.5463 32.9134 90.8512 32.3235C91.1561 31.7302 91.5887 31.2695 92.1488 30.9414C92.7122 30.6099 93.3801 30.4442 94.1523 30.4442C94.9246 30.4442 95.5908 30.6099 96.1509 30.9414C96.7144 31.2695 97.1486 31.7302 97.4535 32.3235C97.7584 32.9134 97.9109 33.6028 97.9109 34.3916C97.9109 35.1738 97.7584 35.8616 97.4535 36.4549C97.1486 37.0448 96.7144 37.5055 96.1509 37.837C95.5908 38.1651 94.9246 38.3291 94.1523 38.3291ZM94.1623 36.6885C94.5136 36.6885 94.8069 36.5891 95.0423 36.3902C95.2776 36.188 95.4549 35.9129 95.5742 35.5649C95.6969 35.2169 95.7582 34.8209 95.7582 34.3767C95.7582 33.9326 95.6969 33.5365 95.5742 33.1885C95.4549 32.8405 95.2776 32.5654 95.0423 32.3632C94.8069 32.1611 94.5136 32.06 94.1623 32.06C93.8077 32.06 93.5094 32.1611 93.2674 32.3632C93.0288 32.5654 92.8481 32.8405 92.7255 33.1885C92.6062 33.5365 92.5465 33.9326 92.5465 34.3767C92.5465 34.8209 92.6062 35.2169 92.7255 35.5649C92.8481 35.9129 93.0288 36.188 93.2674 36.3902C93.5094 36.5891 93.8077 36.6885 94.1623 36.6885ZM103.07 30.5436V32.1345H98.4711V30.5436H103.07ZM99.5151 28.7141H101.633V35.8334C101.633 36.029 101.663 36.1814 101.722 36.2908C101.782 36.3968 101.865 36.4714 101.971 36.5145C102.08 36.5576 102.206 36.5791 102.349 36.5791C102.448 36.5791 102.548 36.5709 102.647 36.5543C102.747 36.5344 102.823 36.5195 102.876 36.5095L103.209 38.0855C103.103 38.1187 102.954 38.1568 102.762 38.1999C102.569 38.2463 102.336 38.2745 102.061 38.2844C101.55 38.3043 101.103 38.2363 100.718 38.0806C100.337 37.9248 100.04 37.6828 99.8283 37.3547C99.6162 37.0266 99.5118 36.6123 99.5151 36.1118V28.7141ZM107.538 38.3291C106.765 38.3291 106.098 38.1651 105.534 37.837C104.974 37.5055 104.541 37.0448 104.237 36.4549C103.932 35.8616 103.779 35.1738 103.779 34.3916C103.779 33.6028 103.932 32.9134 104.237 32.3235C104.541 31.7302 104.974 31.2695 105.534 30.9414C106.098 30.6099 106.765 30.4442 107.538 30.4442C108.31 30.4442 108.976 30.6099 109.536 30.9414C110.1 31.2695 110.534 31.7302 110.839 32.3235C111.144 32.9134 111.296 33.6028 111.296 34.3916C111.296 35.1738 111.144 35.8616 110.839 36.4549C110.534 37.0448 110.1 37.5055 109.536 37.837C108.976 38.1651 108.31 38.3291 107.538 38.3291ZM107.548 36.6885C107.899 36.6885 108.192 36.5891 108.428 36.3902C108.663 36.188 108.84 35.9129 108.96 35.5649C109.082 35.2169 109.143 34.8209 109.143 34.3767C109.143 33.9326 109.082 33.5365 108.96 33.1885C108.84 32.8405 108.663 32.5654 108.428 32.3632C108.192 32.1611 107.899 32.06 107.548 32.06C107.193 32.06 106.895 32.1611 106.653 32.3632C106.414 32.5654 106.233 32.8405 106.111 33.1885C105.991 33.5365 105.932 33.9326 105.932 34.3767C105.932 34.8209 105.991 35.2169 106.111 35.5649C106.233 35.9129 106.414 36.188 106.653 36.3902C106.895 36.5891 107.193 36.6885 107.548 36.6885ZM115.834 41.2027C115.148 41.2027 114.559 41.1083 114.069 40.9193C113.582 40.7337 113.194 40.4802 112.905 40.1587C112.617 39.8372 112.43 39.4759 112.344 39.0749L114.302 38.8114C114.362 38.9638 114.457 39.1064 114.586 39.2389C114.715 39.3715 114.886 39.4776 115.098 39.5571C115.313 39.64 115.575 39.6814 115.883 39.6814C116.344 39.6814 116.724 39.5687 117.022 39.3433C117.323 39.1213 117.474 38.7484 117.474 38.2247V36.8277H117.385C117.292 37.0398 117.153 37.2404 116.967 37.4293C116.782 37.6182 116.543 37.7723 116.251 37.8916C115.96 38.011 115.612 38.0706 115.207 38.0706C114.634 38.0706 114.112 37.938 113.641 37.6729C113.174 37.4044 112.801 36.9951 112.523 36.4449C112.247 35.8914 112.11 35.1921 112.11 34.3469C112.11 33.4818 112.251 32.7593 112.533 32.1793C112.814 31.5993 113.189 31.1651 113.656 30.8767C114.127 30.5884 114.642 30.4442 115.202 30.4442C115.63 30.4442 115.988 30.5171 116.276 30.6629C116.564 30.8055 116.796 30.9844 116.972 31.1999C117.151 31.412 117.289 31.6208 117.385 31.8263H117.464V30.5436H119.567V38.2546C119.567 38.9042 119.408 39.4477 119.09 39.8852C118.772 40.3227 118.331 40.6509 117.768 40.8696C117.207 41.0917 116.563 41.2027 115.834 41.2027ZM115.878 36.4797C116.22 36.4797 116.508 36.3952 116.743 36.2262C116.982 36.0538 117.164 35.8085 117.29 35.4904C117.42 35.1689 117.484 34.7844 117.484 34.337C117.484 33.8895 117.421 33.5017 117.295 33.1736C117.169 32.8422 116.987 32.5853 116.748 32.403C116.51 32.2207 116.22 32.1296 115.878 32.1296C115.53 32.1296 115.237 32.224 114.998 32.4129C114.76 32.5986 114.579 32.8571 114.457 33.1885C114.334 33.52 114.273 33.9028 114.273 34.337C114.273 34.7778 114.334 35.1589 114.457 35.4804C114.582 35.7986 114.763 36.0455 114.998 36.2212C115.237 36.3935 115.53 36.4797 115.878 36.4797ZM120.973 38.18V30.5436H123.026V31.876H123.106C123.245 31.4021 123.478 31.0441 123.806 30.8022C124.135 30.5569 124.512 30.4343 124.94 30.4343C125.046 30.4343 125.16 30.4409 125.283 30.4541C125.406 30.4674 125.513 30.4856 125.606 30.5088V32.3881C125.507 32.3583 125.369 32.3317 125.194 32.3085C125.018 32.2853 124.857 32.2737 124.711 32.2737C124.4 32.2737 124.121 32.3417 123.876 32.4776C123.634 32.6102 123.442 32.7958 123.299 33.0344C123.16 33.273 123.091 33.5481 123.091 33.8597V38.18H120.973ZM128.38 38.3242C127.893 38.3242 127.459 38.2397 127.077 38.0706C126.696 37.8983 126.395 37.6447 126.173 37.31C125.954 36.9719 125.845 36.551 125.845 36.0472C125.845 35.6229 125.922 35.2666 126.078 34.9783C126.234 34.6899 126.446 34.4579 126.715 34.2823C126.983 34.1066 127.288 33.974 127.629 33.8845C127.974 33.795 128.335 33.7321 128.713 33.6956C129.157 33.6492 129.515 33.6061 129.787 33.5664C130.059 33.5233 130.256 33.4603 130.379 33.3774C130.501 33.2946 130.563 33.1719 130.563 33.0095V32.9797C130.563 32.6648 130.463 32.4212 130.264 32.2489C130.069 32.0765 129.79 31.9904 129.429 31.9904C129.048 31.9904 128.745 32.0749 128.519 32.2439C128.294 32.4096 128.145 32.6184 128.072 32.8703L126.113 32.7112C126.212 32.2472 126.408 31.8462 126.7 31.5081C126.991 31.1667 127.367 30.9049 127.828 30.7226C128.292 30.537 128.829 30.4442 129.439 30.4442C129.863 30.4442 130.269 30.4939 130.657 30.5933C131.048 30.6928 131.394 30.8469 131.696 31.0557C132.001 31.2645 132.241 31.533 132.417 31.8611C132.593 32.1859 132.68 32.5754 132.68 33.0294V38.18H130.672V37.121H130.612C130.49 37.3597 130.326 37.5701 130.12 37.7524C129.915 37.9314 129.668 38.0723 129.379 38.175C129.091 38.2745 128.758 38.3242 128.38 38.3242ZM128.987 36.8625C129.298 36.8625 129.573 36.8012 129.812 36.6786C130.05 36.5526 130.238 36.3836 130.374 36.1715C130.51 35.9593 130.577 35.7191 130.577 35.4506V34.6402C130.511 34.6833 130.42 34.7231 130.304 34.7595C130.191 34.7927 130.064 34.8242 129.921 34.854C129.779 34.8805 129.636 34.9054 129.494 34.9286C129.351 34.9485 129.222 34.9667 129.106 34.9833C128.857 35.0197 128.64 35.0777 128.455 35.1573C128.269 35.2368 128.125 35.3445 128.022 35.4804C127.919 35.613 127.868 35.7787 127.868 35.9776C127.868 36.2659 127.972 36.4863 128.181 36.6388C128.393 36.7879 128.662 36.8625 128.987 36.8625ZM134.044 41.0436V30.5436H136.132V31.8263H136.226C136.319 31.6208 136.453 31.412 136.629 31.1999C136.808 30.9844 137.04 30.8055 137.325 30.6629C137.613 30.5171 137.971 30.4442 138.399 30.4442C138.955 30.4442 139.469 30.59 139.94 30.8817C140.41 31.17 140.787 31.6059 141.068 32.1892C141.35 32.7692 141.491 33.4968 141.491 34.3718C141.491 35.2236 141.353 35.9428 141.078 36.5294C140.807 37.1128 140.435 37.5552 139.965 37.8568C139.497 38.1551 138.974 38.3043 138.394 38.3043C137.983 38.3043 137.633 38.2363 137.345 38.1004C137.06 37.9646 136.826 37.7939 136.644 37.5884C136.461 37.3796 136.322 37.1691 136.226 36.957H136.161V41.0436H134.044ZM136.117 34.3618C136.117 34.8159 136.18 35.212 136.306 35.55C136.432 35.8881 136.614 36.1516 136.852 36.3405C137.091 36.5261 137.381 36.6189 137.723 36.6189C138.067 36.6189 138.359 36.5245 138.598 36.3355C138.836 36.1433 139.017 35.8781 139.139 35.5401C139.265 35.1987 139.328 34.8059 139.328 34.3618C139.328 33.921 139.267 33.5332 139.144 33.1985C139.022 32.8637 138.841 32.6019 138.602 32.4129C138.364 32.224 138.071 32.1296 137.723 32.1296C137.378 32.1296 137.086 32.2207 136.848 32.403C136.612 32.5853 136.432 32.8438 136.306 33.1786C136.18 33.5133 136.117 33.9077 136.117 34.3618ZM144.741 33.7652V38.18H142.623V27.9982H144.681V31.8909H144.771C144.943 31.4402 145.221 31.0872 145.606 30.832C145.99 30.5735 146.473 30.4442 147.053 30.4442C147.583 30.4442 148.045 30.5602 148.44 30.7922C148.837 31.0209 149.146 31.3507 149.364 31.7816C149.586 32.2091 149.696 32.7212 149.693 33.3178V38.18H147.575V33.6956C147.578 33.225 147.459 32.8587 147.217 32.5969C146.978 32.3351 146.643 32.2041 146.212 32.2041C145.924 32.2041 145.669 32.2655 145.447 32.3881C145.228 32.5107 145.056 32.6897 144.93 32.925C144.807 33.157 144.744 33.4371 144.741 33.7652ZM152.113 41.0436C151.845 41.0436 151.593 41.0221 151.358 40.979C151.126 40.9392 150.933 40.8879 150.781 40.8249L151.258 39.2439C151.507 39.3201 151.731 39.3616 151.929 39.3682C152.132 39.3748 152.306 39.3284 152.451 39.229C152.601 39.1296 152.722 38.9605 152.814 38.7219L152.939 38.3987L150.199 30.5436H152.427L154.008 36.1516H154.087L155.683 30.5436H157.925L154.957 39.0053C154.815 39.4163 154.621 39.7742 154.375 40.0791C154.133 40.3874 153.827 40.6244 153.456 40.7901C153.084 40.9591 152.637 41.0436 152.113 41.0436ZM73.5011 52.18V41.9982H77.5181C78.287 41.9982 78.9433 42.1357 79.4869 42.4108C80.0337 42.6826 80.4497 43.0687 80.7347 43.5692C81.0231 44.0664 81.1672 44.6513 81.1672 45.3242C81.1672 46.0003 81.0214 46.582 80.7297 47.0692C80.4381 47.5531 80.0155 47.9243 79.462 48.1828C78.9118 48.4414 78.2456 48.5706 77.4634 48.5706H74.7738V46.8405H77.1154C77.5264 46.8405 77.8678 46.7842 78.1395 46.6715C78.4113 46.5588 78.6135 46.3897 78.7461 46.1644C78.882 45.939 78.9499 45.6589 78.9499 45.3242C78.9499 44.9861 78.882 44.7011 78.7461 44.4691C78.6135 44.237 78.4097 44.0614 78.1346 43.9421C77.8628 43.8194 77.5198 43.7581 77.1055 43.7581H75.6538V52.18H73.5011ZM78.9996 47.5465L81.5302 52.18H79.1538L76.6779 47.5465H78.9996ZM85.7258 52.3291C84.9403 52.3291 84.2642 52.17 83.6974 51.8519C83.134 51.5304 82.6998 51.0763 82.3949 50.4897C82.09 49.8997 81.9375 49.202 81.9375 48.3966C81.9375 47.6111 82.09 46.9217 82.3949 46.3284C82.6998 45.7352 83.129 45.2728 83.6825 44.9414C84.2393 44.6099 84.8923 44.4442 85.6413 44.4442C86.1451 44.4442 86.6141 44.5254 87.0483 44.6878C87.4858 44.8469 87.8669 45.0872 88.1918 45.4087C88.5199 45.7302 88.7751 46.1345 88.9574 46.6218C89.1397 47.1057 89.2308 47.6724 89.2308 48.322V48.9037H82.7827V47.5912H87.2372C87.2372 47.2863 87.1709 47.0162 87.0383 46.7808C86.9058 46.5455 86.7218 46.3616 86.4865 46.229C86.2545 46.0931 85.9844 46.0252 85.6761 46.0252C85.3546 46.0252 85.0696 46.0997 84.821 46.2489C84.5758 46.3947 84.3835 46.5919 84.2443 46.8405C84.1051 47.0858 84.0339 47.3592 84.0305 47.6608V48.9087C84.0305 49.2865 84.1001 49.613 84.2393 49.8881C84.3819 50.1632 84.5824 50.3753 84.8409 50.5245C85.0994 50.6736 85.406 50.7482 85.7607 50.7482C85.996 50.7482 86.2114 50.715 86.407 50.6487C86.6025 50.5825 86.7699 50.483 86.9091 50.3504C87.0483 50.2179 87.1544 50.0555 87.2273 49.8632L89.1861 49.9925C89.0866 50.4631 88.8828 50.8741 88.5746 51.2254C88.2696 51.5735 87.8752 51.8452 87.3913 52.0408C86.9107 52.233 86.3556 52.3291 85.7258 52.3291ZM97.2472 44.5436L94.5774 52.18H92.1911L89.5213 44.5436H91.7585L93.3445 50.0074H93.424L95.005 44.5436H97.2472ZM98.051 52.18V44.5436H100.169V52.18H98.051ZM99.1149 43.5593C98.8 43.5593 98.5299 43.4549 98.3045 43.246C98.0825 43.0339 97.9714 42.7804 97.9714 42.4854C97.9714 42.1937 98.0825 41.9435 98.3045 41.7347C98.5299 41.5226 98.8 41.4165 99.1149 41.4165C99.4298 41.4165 99.6982 41.5226 99.9203 41.7347C100.146 41.9435 100.258 42.1937 100.258 42.4854C100.258 42.7804 100.146 43.0339 99.9203 43.246C99.6982 43.4549 99.4298 43.5593 99.1149 43.5593ZM105.066 52.3291C104.28 52.3291 103.604 52.17 103.037 51.8519C102.474 51.5304 102.039 51.0763 101.735 50.4897C101.43 49.8997 101.277 49.202 101.277 48.3966C101.277 47.6111 101.43 46.9217 101.735 46.3284C102.039 45.7352 102.469 45.2728 103.022 44.9414C103.579 44.6099 104.232 44.4442 104.981 44.4442C105.485 44.4442 105.954 44.5254 106.388 44.6878C106.825 44.8469 107.207 45.0872 107.531 45.4087C107.86 45.7302 108.115 46.1345 108.297 46.6218C108.479 47.1057 108.571 47.6724 108.571 48.322V48.9037H102.122V47.5912H106.577C106.577 47.2863 106.511 47.0162 106.378 46.7808C106.245 46.5455 106.062 46.3616 105.826 46.229C105.594 46.0931 105.324 46.0252 105.016 46.0252C104.694 46.0252 104.409 46.0997 104.161 46.2489C103.915 46.3947 103.723 46.5919 103.584 46.8405C103.445 47.0858 103.374 47.3592 103.37 47.6608V48.9087C103.37 49.2865 103.44 49.613 103.579 49.8881C103.722 50.1632 103.922 50.3753 104.181 50.5245C104.439 50.6736 104.746 50.7482 105.1 50.7482C105.336 50.7482 105.551 50.715 105.747 50.6487C105.942 50.5825 106.11 50.483 106.249 50.3504C106.388 50.2179 106.494 50.0555 106.567 49.8632L108.526 49.9925C108.426 50.4631 108.222 50.8741 107.914 51.2254C107.609 51.5735 107.215 51.8452 106.731 52.0408C106.25 52.233 105.695 52.3291 105.066 52.3291ZM111.124 52.18L109.046 44.5436H111.189L112.372 49.6743H112.442L113.675 44.5436H115.778L117.031 49.6445H117.095L118.259 44.5436H120.396L118.323 52.18H116.081L114.768 47.3774H114.674L113.362 52.18H111.124ZM124.535 52.3291C123.749 52.3291 123.073 52.17 122.506 51.8519C121.943 51.5304 121.509 51.0763 121.204 50.4897C120.899 49.8997 120.746 49.202 120.746 48.3966C120.746 47.6111 120.899 46.9217 121.204 46.3284C121.509 45.7352 121.938 45.2728 122.492 44.9414C123.048 44.6099 123.701 44.4442 124.45 44.4442C124.954 44.4442 125.423 44.5254 125.857 44.6878C126.295 44.8469 126.676 45.0872 127.001 45.4087C127.329 45.7302 127.584 46.1345 127.766 46.6218C127.949 47.1057 128.04 47.6724 128.04 48.322V48.9037H121.592V47.5912H126.046C126.046 47.2863 125.98 47.0162 125.847 46.7808C125.715 46.5455 125.531 46.3616 125.295 46.229C125.063 46.0931 124.793 46.0252 124.485 46.0252C124.164 46.0252 123.879 46.0997 123.63 46.2489C123.385 46.3947 123.193 46.5919 123.053 46.8405C122.914 47.0858 122.843 47.3592 122.84 47.6608V48.9087C122.84 49.2865 122.909 49.613 123.048 49.8881C123.191 50.1632 123.391 50.3753 123.65 50.5245C123.908 50.6736 124.215 50.7482 124.57 50.7482C124.805 50.7482 125.02 50.715 125.216 50.6487C125.411 50.5825 125.579 50.483 125.718 50.3504C125.857 50.2179 125.963 50.0555 126.036 49.8632L127.995 49.9925C127.896 50.4631 127.692 50.8741 127.384 51.2254C127.079 51.5735 126.684 51.8452 126.2 52.0408C125.72 52.233 125.165 52.3291 124.535 52.3291ZM131.956 52.3043C131.376 52.3043 130.85 52.1551 130.38 51.8568C129.913 51.5552 129.541 51.1128 129.266 50.5294C128.994 49.9428 128.859 49.2236 128.859 48.3718C128.859 47.4968 128.999 46.7692 129.281 46.1892C129.563 45.6059 129.937 45.17 130.405 44.8817C130.875 44.59 131.391 44.4442 131.951 44.4442C132.378 44.4442 132.735 44.5171 133.02 44.6629C133.308 44.8055 133.54 44.9844 133.716 45.1999C133.895 45.412 134.031 45.6208 134.123 45.8263H134.188V41.9982H136.301V52.18H134.213V50.957H134.123C134.024 51.1691 133.883 51.3796 133.701 51.5884C133.522 51.7939 133.288 51.9646 133 52.1004C132.715 52.2363 132.367 52.3043 131.956 52.3043ZM132.627 50.6189C132.968 50.6189 133.257 50.5261 133.492 50.3405C133.731 50.1516 133.913 49.8881 134.039 49.55C134.168 49.212 134.233 48.8159 134.233 48.3618C134.233 47.9077 134.17 47.5133 134.044 47.1786C133.918 46.8438 133.736 46.5853 133.497 46.403C133.258 46.2207 132.968 46.1296 132.627 46.1296C132.279 46.1296 131.986 46.224 131.747 46.4129C131.508 46.6019 131.328 46.8637 131.205 47.1985C131.082 47.5332 131.021 47.921 131.021 48.3618C131.021 48.8059 131.082 49.1987 131.205 49.5401C131.331 49.8781 131.512 50.1433 131.747 50.3355C131.986 50.5245 132.279 50.6189 132.627 50.6189Z" fill="white"/>
<defs>
<linearGradient id="paint0_linear_6_675" x1="25.9286" y1="28.1766" x2="49.0675" y2="51.3195" gradientUnits="userSpaceOnUse">
<stop stop-color="#29313E"/>
<stop offset="1" stop-color="#859ABB"/>
</linearGradient>
<linearGradient id="paint1_linear_6_675" x1="31.0714" y1="33.3186" x2="38.1097" y2="39.7182" gradientUnits="userSpaceOnUse">
<stop stop-color="#E3E7EF"/>
<stop offset="1" stop-color="#859ABB"/>
</linearGradient>
<linearGradient id="paint2_linear_6_675" x1="14.6723" y1="17.75" x2="24.301" y2="17.75" gradientUnits="userSpaceOnUse">
<stop stop-color="#AC1F57"/>
<stop offset="1" stop-color="#7D181A"/>
</linearGradient>
</defs>
</svg>
